<?xml version="1.0" encoding="utf-8"?>
<!DOCTYPE svg PUBLIC "-//W3C//DTD SVG 1.0//EN" "http://www.w3.org/TR/2001/REC-SVG-20010904/DTD/svg10.dtd">
<svg version="1.0" xmlns="http://www.w3.org/2000/svg" width="137px" height="158px" viewBox="0 0 137 158" preserveAspectRatio="xMidYMid meet">
 <g fill="#fffefd">
  <path d="M0 79 l0 -79 68.50 0 68.50 0 0 79 0 79 -34 0 c-20.30 0 -34 -0.20 -34 -0.45 0 -1.05 0.65 -2.05 1.30 -2.05 1.35 0 7.20 -2.95 10.80 -5.45 2 -1.40 5.10 -4 6.90 -5.80 2.10 -2.10 3.60 -3.25 4.35 -3.25 0.95 0 1.15 -0.25 1.15 -1.60 0.05 -1.75 1.90 -4.30 3.90 -5.35 0.65 -0.35 1.10 -1.05 1.10 -1.75 0 -0.65 0.90 -3.10 2 -5.45 3.55 -7.60 5 -15.60 4.20 -23.15 l-0.40 -3.95 -0.35 7.25 c-0.25 5.95 -0.60 8 -1.70 11.50 -2.70 8.40 -8.25 17.60 -11 18.30 -0.95 0.25 -1.25 0.65 -1.25 1.70 0 1.85 -3.20 4.50 -5.45 4.50 -1.20 0 -1.55 0.20 -1.55 1 0 1.25 -1.45 2.15 -5.75 3.55 -7.25 2.40 -26.25 1.05 -26.25 -1.85 0 -0.50 -0.60 -0.70 -1.90 -0.70 -2.50 0 -7 -2.85 -10.90 -6.85 l-2.80 -2.90 1.40 2.65 c0.80 1.45 2.65 4 4.10 5.60 1.40 1.60 2.60 3.40 2.60 3.95 0 0.75 0.30 1.05 1.10 1.05 1.55 0 6.90 3.55 6.90 4.65 0 0.65 0.40 0.85 1.75 0.85 1 0 2.60 0.35 3.60 0.75 0.95 0.40 2.15 0.75 2.65 0.75 0.80 0 1.50 0.95 1.50 2.05 0 0.25 -12.30 0.45 -30.50 0.45 l-30.50 0 0 -79z m35.30 53.60 c-0.55 -0.50 -0.75 0.20 -0.40 1.40 l0.35 1.25 0.15 -1.15 c0.10 -0.65 0.05 -1.30 -0.10 -1.50z m42.05 -3.70 c1.40 -1.30 1.45 -2 0.20 -3.10 -1.20 -1.10 -2.45 -0.90 -3.35 0.50 -0.65 0.90 -0.60 1.20 0.35 2.35 1.25 1.65 1.35 1.65 2.80 0.25z m-44.65 -13.05 c1 -5.75 2.70 -10.85 5.10 -15.20 3.35 -6.10 11.85 -13 15.50 -12.55 1.15 0.15 1.70 0 1.70 -0.45 0 -1.05 2.25 -2.15 5.05 -2.45 1.50 -0.15 3.40 -0.60 4.20 -0.95 0.85 -0.35 2.95 -0.80 4.75 -1 l3.25 -0.35 0.05 -3.10 c0.05 -1.95 0.40 -3.80 1.05 -5.10 l1 -2.10 -1.55 0.45 c-0.85 0.25 -4.20 0.45 -7.40 0.45 l-5.90 0 0 1.55 c0 1.55 0 1.55 -2.50 1.35 -2.10 -0.15 -2.50 0 -2.60 0.80 -0.10 0.55 -1.45 1.75 -3.25 2.85 -6.90 4.20 -12.40 10.25 -15.95 17.70 -2.95 6.05 -3.70 9.30 -4.05 17.25 -0.35 7.90 0.25 8.20 1.55 0.85z m22.65 -19.20 c-0.05 -2.95 -0.15 -0.65 -0.15 5.10 0 5.80 0.10 8.20 0.15 5.40 0.10 -2.80 0.10 -7.55 0 -10.50z m-0.35 -25.85 c0 -1.55 -0.10 -1.65 -1.35 -1.40 -1.30 0.25 -1.30 0.25 -0.25 0.65 0.65 0.25 1.10 0.85 1.10 1.45 0 0.55 0.10 1 0.25 1 0.15 0 0.25 -0.75 0.25 -1.70z m-6 -4.25 c-0.70 -1.40 -0.65 -9.80 0.15 -11.20 1.25 -2.25 2 -2.85 3.65 -2.85 1.50 0 1.65 -0.15 1.80 -1.60 0.15 -1.55 0.25 -1.65 2.40 -1.80 1.30 -0.10 2.40 -0.45 2.65 -0.90 0.75 -1.30 8.30 -0.40 13.10 1.55 2.20 0.90 4.10 1.60 4.15 1.50 0.50 -0.45 -5.65 -7.30 -7.75 -8.65 -4.15 -2.70 -6.05 -3.25 -10.20 -3.20 -3.55 0.05 -4 0.20 -6.80 2.05 -3.70 2.45 -5.70 4.70 -7.70 8.60 -2.15 4.35 -2.40 7.15 -0.80 10.60 0.70 1.50 2.15 3.65 3.30 4.80 2.25 2.25 2.85 2.55 2.05 1.10z m21 -41.80 c0 -0.05 -0.45 -0.25 -1 -0.40 -0.60 -0.15 -1 0 -1 0.40 0 0.40 0.40 0.55 1 0.40 0.55 -0.15 1 -0.35 1 -0.40z m-14.55 -14.35 c-0.05 -0.35 -0.25 -1.20 -0.45 -1.90 -0.35 -1.10 -0.40 -1.05 -0.45 0.65 -0.05 1 0.20 1.85 0.45 1.85 0.30 0 0.50 -0.30 0.45 -0.60z"/>
 </g>
 <g fill="#038d38">
  <path d="M59.25 157.50 c-3.65 -1.50 -6.70 -2.15 -7.40 -1.60 -0.40 0.35 -1.35 0.50 -2.30 0.30 l-1.65 -0.35 1.05 -1 1 -1.05 -2.55 -1.70 c-2.50 -1.70 -3.10 -1.90 -6 -2.05 -1.65 -0.05 -1.90 -1.30 -0.30 -1.70 0.95 -0.25 0.85 -0.50 -1.50 -3.10 -2.70 -2.95 -5.55 -7.70 -6.60 -10.90 -0.40 -1.30 -0.95 -1.95 -1.80 -2.15 -1.35 -0.35 -1.65 -1.70 -0.40 -1.70 0.60 0 0.75 -0.30 0.50 -1.10 -0.20 -0.65 -0.60 -2.35 -0.90 -3.85 -0.40 -1.90 -0.85 -2.75 -1.50 -2.95 -0.55 -0.10 -0.90 -0.65 -0.90 -1.40 0 -0.85 0.20 -1.10 0.75 -0.90 1.10 0.45 1.10 -6.90 0 -7.80 -0.40 -0.35 -0.75 -1.05 -0.75 -1.60 0 -0.80 0.15 -0.90 0.65 -0.45 0.95 0.75 1.35 0.20 1.35 -1.95 0 -5.10 4.10 -14.60 8.90 -20.50 3.40 -4.25 6.25 -6.75 10.75 -9.45 3 -1.85 3.10 -2 3.25 -4.20 0.15 -2.25 0.15 -2.25 -2.15 -3.40 -3.35 -1.70 -7.10 -5.50 -8.60 -8.75 -3.25 -7.10 0.50 -17.10 8.25 -22.05 l2.60 -1.70 0 -18.40 c0 -10.15 0.15 -18.80 0.30 -19.25 0.15 -0.45 0.75 -0.80 1.25 -0.80 0.75 0 0.95 0.35 0.95 1.55 0 2.35 1.40 7.35 3 10.75 2.10 4.35 4.95 7.35 8.80 9.25 2.85 1.40 3.80 1.65 7.25 1.65 5.10 0 4.60 0.70 -2.10 2.85 -7.10 2.25 -10.95 5.35 -11.70 9.50 l-0.35 1.80 3 0.60 c4.65 0.90 8.75 3.70 12.70 8.55 1.85 2.30 4.25 4.75 5.35 5.45 1.15 0.70 2.05 1.50 2.05 1.75 0 1 -6.65 -0.25 -11.40 -2.15 -5.15 -2.05 -10.55 -2.90 -11 -1.65 -0.15 0.55 1.40 14.95 2.20 20.30 l0.30 1.90 4.10 -0.20 c3.25 -0.20 4.85 -0.60 8.05 -2 2.20 -1 4.05 -1.70 4.15 -1.65 0.10 0.10 -0.75 1.35 -1.85 2.80 -3.15 4.15 -4.20 6.70 -4.15 10.25 l0.05 3.05 -4 0.50 c-2.25 0.30 -4.20 0.75 -4.45 0.95 -0.20 0.25 -0.20 2.35 0.05 4.70 0.20 2.35 0.45 8.80 0.55 14.40 0.15 9.35 0.20 10.15 1.05 9.90 1.10 -0.25 1.15 1.10 0.05 1.90 -0.55 0.40 -0.80 1.60 -0.85 4.20 -0.15 3.25 -0.05 3.55 0.75 3.30 1.25 -0.40 1.15 1.10 -0.10 1.80 -0.80 0.45 -1 1.05 -1 3.20 0 1.95 0.20 2.75 0.75 3 1.05 0.40 0.95 1.80 -0.15 1.80 -0.70 0 -1 0.65 -1.40 2.80 -0.45 2.55 -0.45 2.85 0.40 3.10 1 0.25 1.25 1.55 0.30 1.65 -0.35 0.05 -1 0.10 -1.45 0.15 -0.45 0 -1.65 1.15 -2.70 2.50 -1.45 1.90 -1.70 2.55 -1.15 2.90 0.35 0.25 3.20 0.35 6.40 0.20 6 -0.25 12.25 -1.80 13.95 -3.55 0.70 -0.65 0.60 -0.75 -0.65 -0.75 -1.20 0 -1.35 -0.10 -0.80 -0.75 0.40 -0.45 1.50 -0.75 2.85 -0.75 1.75 0 2.70 -0.35 4.20 -1.55 2.15 -1.70 2.45 -2.45 1 -2.45 -0.70 0 -0.90 -0.25 -0.70 -1 0.20 -0.75 0.70 -1 1.80 -1 3.20 0 8.95 -8.75 12.15 -18.50 1.25 -3.85 1.40 -4.95 1.40 -11.50 0.05 -7.15 0.05 -7.30 -1.55 -10.70 -0.90 -1.85 -1.65 -3.65 -1.65 -4 0.05 -0.55 1.65 1.15 2.85 3 0.35 0.50 0.20 -0.30 -0.35 -1.80 -0.55 -1.50 -1.45 -3.35 -2 -4.10 -0.55 -0.75 -1 -1.75 -1 -2.20 0 -1.65 3 1.85 4.75 5.55 2.55 5.40 3 8.05 2.95 17 -0.05 9.20 -0.80 12.90 -4.20 20.10 -2.30 4.95 -2.40 5.40 -0.90 4.60 0.90 -0.50 1 -0.45 0.75 0.30 -0.20 0.45 -0.35 1 -0.35 1.25 0 0.20 -0.70 0.50 -1.50 0.70 -0.85 0.15 -2.30 1.10 -3.25 2.15 -2 2.15 -2.30 3.40 -0.75 2.90 0.80 -0.25 0.95 -0.15 0.65 0.60 -0.45 1.20 -1.15 1.65 -2.65 1.65 -0.90 0 -2.25 0.95 -4.50 3.25 -3.20 3.20 -8.55 7.25 -11.95 9 -4.60 2.35 -8.25 3.25 -12.80 3.20 -2.45 0 -4.95 -0.20 -5.50 -0.45z m-0.05 -13.20 c1 -1.20 1.80 -2.40 1.80 -2.65 0 -0.60 -3.55 -2.15 -4.90 -2.15 -0.75 0 -1.35 0.70 -2.25 2.65 -0.65 1.40 -1.15 2.70 -1.05 2.75 0.15 0.20 3.80 1.55 4.25 1.60 0.20 0 1.15 -1 2.15 -2.20z m-7.55 -3.30 c1.30 -2.30 1.30 -2.50 0.50 -2.95 -1.90 -1.10 -2.15 -1.40 -1.85 -2.20 0.20 -0.65 0.55 -0.70 1.55 -0.30 0.70 0.25 1.40 0.40 1.50 0.25 0.15 -0.10 0.35 -1.60 0.50 -3.25 0.25 -2.60 0.15 -3.05 -0.55 -3.05 -0.95 0 -1.05 -0.55 -0.20 -1.40 0.45 -0.45 0.45 -0.60 0 -0.60 -0.35 0 -0.60 -0.35 -0.60 -0.75 0 -0.40 0.35 -0.75 0.75 -0.75 0.55 0 0.75 -0.60 0.75 -2.50 0 -2.45 -0.25 -2.75 -1.85 -2.55 -0.35 0.05 -0.65 -0.35 -0.65 -0.95 0 -0.70 0.30 -1 1.15 -1 l1.20 0 -0.25 -14.35 c-0.10 -7.95 -0.35 -14.55 -0.55 -14.75 -0.55 -0.60 -6.25 3.35 -9.25 6.35 -3.45 3.55 -5.75 7.55 -7.80 13.75 l-1.60 4.70 1.05 0.70 c1.50 1.05 1.40 2.20 -0.20 1.80 -1.05 -0.25 -1.25 -0.15 -1.25 0.70 0 0.55 -0.15 1.35 -0.30 1.75 -0.15 0.50 0.10 0.90 0.75 1.10 1.50 0.45 1.30 1.65 -0.30 1.85 l-1.40 0.20 1.90 1.15 c2.20 1.35 2.60 2.80 0.55 2.05 -1.30 -0.50 -1.30 -0.50 -1 1.10 0.45 2.35 1.60 3.80 3.10 4 0.80 0.10 1.50 0.55 1.75 1.20 0.30 0.90 0.20 1 -0.85 0.80 -1.80 -0.35 -1.50 0.35 1.55 3.55 2.85 3 8.30 6.85 9.70 6.85 0.45 0 1.45 -1.10 2.20 -2.50z m10.80 -3.60 c1.15 -3.80 1.15 -4.80 0.10 -5.40 -1.30 -0.70 -1.40 -2 -0.10 -1.65 0.65 0.15 1 -0.10 1.20 -0.95 0.50 -1.85 0.40 -2.05 -0.90 -1.80 -1.55 0.30 -1.65 -0.70 -0.20 -1.70 0.90 -0.55 1.05 -1.20 1.15 -4.05 0.05 -3.15 0 -3.35 -1.05 -3.35 -1.40 0 -1.50 -1.30 -0.15 -1.65 0.90 -0.25 1 -0.65 1 -4.20 -0.05 -4.50 -0.80 -17.80 -1.30 -22.80 l-0.35 -3.40 -1.55 0.30 c-3.55 0.75 -3.35 -0.15 -3.45 16.65 -0.10 14.20 -0.05 15.15 0.80 14.90 1.20 -0.30 1.10 1.05 -0.15 1.70 -0.85 0.45 -1 1.05 -1 4 0 3.15 0.10 3.50 1 3.50 0.70 0 1 0.35 1 1.20 0 0.95 -0.20 1.15 -0.95 0.95 -0.80 -0.20 -1 0.20 -1.35 3.20 -0.20 1.85 -0.40 3.60 -0.45 3.85 0 0.45 4.35 2.25 5.60 2.30 0.30 0 0.80 -0.75 1.10 -1.60z m-4.45 -62.85 c0 -0.70 -0.90 -1.15 -1.50 -0.80 -0.30 0.20 -0.40 0.55 -0.25 0.80 0.40 0.60 1.75 0.60 1.75 0z m2.25 -5.40 c-0.80 -7 -2.35 -18.40 -2.50 -18.60 -0.10 -0.10 -0.55 -0.05 -1 0.10 -0.65 0.25 -0.75 1.50 -0.75 7.70 0 4.05 0.15 8.60 0.30 10.05 0.30 2.40 0.45 2.65 1.90 3.05 0.85 0.25 1.75 0.50 1.95 0.50 0.25 0.05 0.25 -1.25 0.10 -2.80z m-7.25 -8.20 c0 -6.20 -0.10 -7 -0.75 -6.45 -2.40 2 -3.05 8 -1.25 11.50 0.55 1.10 1.25 2 1.50 2 0.30 0 0.50 -2.80 0.50 -7.05z m5.75 -26.30 c1.35 -3.75 3.15 -6.25 5.85 -8 l2 -1.35 -1.45 -1 c-2.50 -1.75 -6.55 -6.35 -8 -9.10 -0.75 -1.45 -1.50 -2.50 -1.65 -2.30 -0.15 0.20 -0.20 5.95 -0.10 12.75 0.20 12.15 0.20 12.40 1.20 12.25 0.75 -0.10 1.30 -1 2.15 -3.25z"/>
 </g>
 <g fill="#000000">
  <path d="M29.25 156.65 c-3.30 -1.70 -8.05 -6.55 -9.30 -9.50 -0.60 -1.30 -1.80 -4.10 -2.75 -6.20 -3.90 -8.80 -1 -16.45 7.35 -19.20 l2.45 -0.85 -2.65 -2.95 c-8.05 -8.85 -9.60 -22.20 -3.85 -32.65 1.60 -2.85 4.55 -6.75 5.20 -6.80 0.20 0 -0.15 0.75 -0.80 1.65 -7.25 9.55 -6.65 19.45 1.80 28.25 7.25 7.65 14 10.70 23.60 10.70 5.40 0 11.30 -1.45 16.40 -4 9.90 -4.90 15.10 -11.50 18.05 -22.80 2.60 -9.95 5.40 -12.55 10.65 -9.85 2.40 1.20 6.40 5.55 5.60 6.05 -0.35 0.20 -1.50 -0.60 -2.85 -2.05 -2.45 -2.60 -5.15 -3.80 -7.35 -3.25 -1.70 0.40 -2.90 2.90 -4.80 9.90 -2.05 7.45 -4.40 11.75 -8.75 16.20 -5.65 5.65 -11.90 8.90 -20.60 10.65 -4.05 0.80 -5.70 0.90 -9.45 0.55 -4.80 -0.50 -10.05 -2.15 -12.85 -4.10 -5.70 -3.95 -8.65 -6.45 -10.40 -8.75 -2.40 -3.20 -4.95 -8.40 -4.95 -10.15 -0.05 -1.15 -0.10 -1.15 -0.55 -0.35 -1.30 2.25 1.25 12 4.35 16.60 0.95 1.45 2.80 3.65 4.15 4.90 l2.40 2.25 3.70 0 c2.05 -0.05 5.60 0.45 8.05 1 4.65 1.15 12.45 3.95 12.95 4.70 1.15 1.80 9.80 -0.20 14.95 -3.45 1.50 -1 4.50 -3.55 6.60 -5.70 3.60 -3.70 4.20 -4.60 8.70 -13.75 5.70 -11.60 8.10 -14.70 11.50 -14.70 2.20 0 3.85 1.35 5.20 4.25 1.15 2.40 1.10 2.60 -0.10 1 -2.25 -2.85 -3.85 -4.25 -4.95 -4.25 -2.25 0 -5.60 4.35 -9.45 12.35 -4.70 9.75 -4.75 9.90 -7.60 13.50 -4.40 5.55 -9.30 9.20 -15.15 11.20 -1.95 0.65 -3.60 1.45 -3.70 1.70 -0.20 0.60 7.30 3.90 12.10 5.30 2.65 0.80 5.60 1.15 11.05 1.30 7.40 0.30 7.50 0.30 6.35 1.20 -1.45 1.20 -5.90 1.25 -12.30 0.20 -5.60 -0.90 -10.15 -2.45 -16 -5.40 l-4.50 -2.25 -4.30 0.25 c-5 0.30 -11 -0.70 -15.30 -2.65 -2.40 -1 -4.40 -2.60 -3.95 -3.10 0.10 -0.05 1.80 0.65 3.85 1.60 2.05 0.90 4.70 1.90 5.95 2.20 3.50 0.85 9.80 1.30 10.15 0.75 0.40 -0.60 -6.15 -3.15 -11.90 -4.70 -5.35 -1.45 -12.10 -1.55 -15.50 -0.25 -6.25 2.40 -9 5.85 -8.90 11.40 0.05 1.55 0.25 3.20 0.50 3.65 0.40 0.65 0.65 0.40 1.35 -1.50 0.60 -1.55 1.55 -2.80 2.90 -3.75 2.95 -2.15 9.50 -3.30 10.05 -1.80 0.20 0.50 -0.45 0.75 -2.85 1 -5.60 0.60 -9.30 3.80 -9.30 8.05 0 2.50 1.70 4.40 6.05 6.65 7.35 3.85 16.25 2.95 24 -2.50 0.80 -0.55 2.45 -0.25 2.45 0.45 0 0.55 -4.10 3.25 -7.40 4.95 -2.10 1.10 -3.55 1.45 -6.95 1.60 -5.30 0.30 -9.45 -0.75 -13.45 -3.40 -1.65 -1.05 -3.05 -1.85 -3.15 -1.75 -0.30 0.30 2.35 3.65 4.40 5.60 1 0.95 3.50 2.55 5.50 3.55 3.55 1.75 4 1.85 8.55 1.85 4.40 0 5.10 -0.15 7.85 -1.55 2.55 -1.30 3.20 -1.45 4.10 -0.95 1.25 0.65 1 1.05 -1.80 2.45 -1.30 0.65 -3.20 0.80 -9.75 0.80 -7.75 -0.05 -8.25 -0.10 -10.65 -1.35z"/>
  <path d="M69.40 142.45 c-4.20 -0.45 -6.35 -1.20 -5.50 -2.05 0.30 -0.30 2.55 -0.20 6.60 0.30 3.35 0.45 7.75 0.80 9.80 0.80 3.60 0 4.85 0.55 2.60 1.20 -1.50 0.40 -8.70 0.25 -13.50 -0.25z"/>
  <path d="M93.55 141.80 c0.40 -0.45 3.10 -1.65 6 -2.60 9.40 -3.20 16.75 -7.90 21.20 -13.60 1.25 -1.55 2.25 -3.05 2.25 -3.25 0 -0.25 -1.05 0.45 -2.35 1.55 -6.50 5.35 -17.35 11.10 -21.10 11.10 -2.15 0 -0.25 -1.30 4.60 -3.20 5.85 -2.30 9.25 -4.25 14.35 -8.25 3.50 -2.80 8.35 -8.10 10.85 -11.90 1.80 -2.75 1.05 -0.30 -1.50 4.95 -4.60 9.35 -10.20 15.60 -18.20 20.35 -3.60 2.10 -10.85 4.75 -14.65 5.35 -2.10 0.30 -2.20 0.25 -1.45 -0.50z"/>
  <path d="M56 139.50 c-1.50 -0.55 -3.15 -1.20 -3.60 -1.45 -1.70 -1 -7.15 -3.05 -10.85 -4.10 -6.90 -1.90 -8.45 -3.90 -1.90 -2.45 5.05 1.10 8.25 2.20 11.85 4 1.50 0.75 4.40 1.90 6.35 2.55 3.65 1.20 4.85 2.50 2.30 2.40 -0.80 0 -2.65 -0.45 -4.15 -0.95z"/>
  <path d="M73.05 130.20 c-3.30 -4.20 1.75 -9.50 5.70 -6.05 1.75 1.50 1.85 4.40 0.20 6.15 -1.60 1.70 -4.50 1.65 -5.90 -0.10z"/>
 </g>
</svg>